<mxfile host="65bd71144e">
    <diagram id="ZCPFG7KWVEnKRgbFe0l8" name="Page-1">
        <mxGraphModel dx="2137" dy="1774" grid="1" gridSize="10" guides="1" tooltips="0" connect="1" arrows="1" fold="1" page="1" pageScale="1" pageWidth="1100" pageHeight="850" math="0" shadow="0">
            <root>
                <mxCell id="0"/>
                <mxCell id="1" parent="0"/>
                <mxCell id="18" value="" style="html=1;orthogonal=1;exitX=1;exitY=0.5;exitDx=0;exitDy=0;entryX=-0.004;entryY=0.1;entryDx=0;entryDy=0;edgeStyle=orthogonalEdgeStyle;curved=1;entryPerimeter=0;" edge="1" parent="1" source="114" target="89">
                    <mxGeometry relative="1" as="geometry">
                        <mxPoint x="240" y="453" as="sourcePoint"/>
                        <mxPoint x="547.5000000000002" y="235" as="targetPoint"/>
                    </mxGeometry>
                </mxCell>
                <mxCell id="88" style="edgeStyle=orthogonalEdgeStyle;html=1;exitX=0.5;exitY=0;exitDx=0;exitDy=0;orthogonal=1;curved=1;startArrow=classic;startFill=1;shadow=0;" edge="1" parent="1" source="67" target="83">
                    <mxGeometry relative="1" as="geometry"/>
                </mxCell>
                <mxCell id="67" value="SharedData" style="swimlane;fontStyle=1;align=center;verticalAlign=middle;childLayout=stackLayout;horizontal=1;startSize=29;horizontalStack=0;resizeParent=1;resizeParentMax=0;resizeLast=0;collapsible=0;marginBottom=0;html=1;" vertex="1" parent="1">
                    <mxGeometry x="20" y="390" width="140" height="80" as="geometry"/>
                </mxCell>
                <mxCell id="69" value="self.mic_data = {}&lt;br&gt;self.src_data = {}" style="text;html=1;strokeColor=none;fillColor=none;align=left;verticalAlign=middle;spacingLeft=4;spacingRight=4;overflow=hidden;rotatable=0;points=[[0,0.5],[1,0.5]];portConstraint=eastwest;" vertex="1" parent="67">
                    <mxGeometry y="29" width="140" height="51" as="geometry"/>
                </mxCell>
                <mxCell id="75" value="&lt;b&gt;MainFrame&lt;/b&gt;&lt;br&gt;(ttk.Frame)" style="swimlane;fontStyle=0;align=center;verticalAlign=top;childLayout=stackLayout;horizontal=1;startSize=55;horizontalStack=0;resizeParent=1;resizeParentMax=0;resizeLast=0;collapsible=0;marginBottom=0;html=1;" vertex="1" parent="1">
                    <mxGeometry x="180" y="130" width="210" height="243" as="geometry"/>
                </mxCell>
                <mxCell id="76" value="__init__" style="text;html=1;strokeColor=none;fillColor=none;align=center;verticalAlign=middle;spacingLeft=4;spacingRight=4;overflow=hidden;rotatable=0;points=[[0,0.5],[1,0.5]];portConstraint=eastwest;" vertex="1" parent="75">
                    <mxGeometry y="55" width="210" height="20" as="geometry"/>
                </mxCell>
                <mxCell id="77" value="container = App" style="text;html=1;strokeColor=none;fillColor=none;align=left;verticalAlign=middle;spacingLeft=4;spacingRight=4;overflow=hidden;rotatable=0;points=[[0,0.5],[1,0.5]];portConstraint=eastwest;" vertex="1" parent="75">
                    <mxGeometry y="75" width="210" height="20" as="geometry"/>
                </mxCell>
                <mxCell id="80" value="" style="line;strokeWidth=1;fillColor=none;align=left;verticalAlign=middle;spacingTop=-1;spacingLeft=3;spacingRight=3;rotatable=0;labelPosition=right;points=[];portConstraint=eastwest;" vertex="1" parent="75">
                    <mxGeometry y="95" width="210" height="8" as="geometry"/>
                </mxCell>
                <mxCell id="81" value="operations" style="text;html=1;strokeColor=none;fillColor=none;align=center;verticalAlign=middle;spacingLeft=4;spacingRight=4;overflow=hidden;rotatable=0;points=[[0,0.5],[1,0.5]];portConstraint=eastwest;" vertex="1" parent="75">
                    <mxGeometry y="103" width="210" height="20" as="geometry"/>
                </mxCell>
                <mxCell id="118" value="self.grid()" style="text;html=1;strokeColor=none;fillColor=none;align=left;verticalAlign=middle;spacingLeft=4;spacingRight=4;overflow=hidden;rotatable=0;points=[[0,0.5],[1,0.5]];portConstraint=eastwest;" vertex="1" parent="75">
                    <mxGeometry y="123" width="210" height="20" as="geometry"/>
                </mxCell>
                <mxCell id="82" value="create_widgets(self)" style="text;html=1;strokeColor=none;fillColor=none;align=left;verticalAlign=middle;spacingLeft=4;spacingRight=4;overflow=hidden;rotatable=0;points=[[0,0.5],[1,0.5]];portConstraint=eastwest;" vertex="1" parent="75">
                    <mxGeometry y="143" width="210" height="20" as="geometry"/>
                </mxCell>
                <mxCell id="83" value="&lt;span style=&quot;white-space: pre;&quot;&gt;&#9;&lt;/span&gt;shared_data = SharedData()" style="text;html=1;strokeColor=none;fillColor=none;align=left;verticalAlign=middle;spacingLeft=4;spacingRight=4;overflow=hidden;rotatable=0;points=[[0,0.5],[1,0.5]];portConstraint=eastwest;" vertex="1" parent="75">
                    <mxGeometry y="163" width="210" height="20" as="geometry"/>
                </mxCell>
                <mxCell id="86" value="&lt;span style=&quot;white-space: pre;&quot;&gt;&#9;&lt;/span&gt;RoomParametersFrame().grid()" style="text;html=1;strokeColor=none;fillColor=none;align=left;verticalAlign=middle;spacingLeft=4;spacingRight=4;overflow=hidden;rotatable=0;points=[[0,0.5],[1,0.5]];portConstraint=eastwest;" vertex="1" parent="75">
                    <mxGeometry y="183" width="210" height="20" as="geometry"/>
                </mxCell>
                <mxCell id="114" value="&lt;span style=&quot;white-space: pre;&quot;&gt;&#9;&lt;/span&gt;DictionnaryFrame().grid()" style="text;html=1;strokeColor=none;fillColor=none;align=left;verticalAlign=middle;spacingLeft=4;spacingRight=4;overflow=hidden;rotatable=0;points=[[0,0.5],[1,0.5]];portConstraint=eastwest;" vertex="1" parent="75">
                    <mxGeometry y="203" width="210" height="20" as="geometry"/>
                </mxCell>
                <mxCell id="115" value="&lt;span style=&quot;white-space: pre;&quot;&gt;&#9;&lt;/span&gt;DictionnaryFrame().grd()" style="text;html=1;strokeColor=none;fillColor=none;align=left;verticalAlign=middle;spacingLeft=4;spacingRight=4;overflow=hidden;rotatable=0;points=[[0,0.5],[1,0.5]];portConstraint=eastwest;" vertex="1" parent="75">
                    <mxGeometry y="223" width="210" height="20" as="geometry"/>
                </mxCell>
                <mxCell id="89" value="&lt;b&gt;DictionnaryFrame&lt;/b&gt;&lt;br&gt;(ttk.Frame)" style="swimlane;fontStyle=0;align=center;verticalAlign=top;childLayout=stackLayout;horizontal=1;startSize=55;horizontalStack=0;resizeParent=1;resizeParentMax=0;resizeLast=0;collapsible=0;marginBottom=0;html=1;" vertex="1" parent="1">
                    <mxGeometry x="500" y="-130" width="245" height="243" as="geometry"/>
                </mxCell>
                <mxCell id="90" value="__init__" style="text;html=1;strokeColor=none;fillColor=none;align=center;verticalAlign=middle;spacingLeft=4;spacingRight=4;overflow=hidden;rotatable=0;points=[[0,0.5],[1,0.5]];portConstraint=eastwest;" vertex="1" parent="89">
                    <mxGeometry y="55" width="245" height="20" as="geometry"/>
                </mxCell>
                <mxCell id="91" value="param_type = 'mic' or 'src'" style="text;html=1;strokeColor=none;fillColor=none;align=left;verticalAlign=middle;spacingLeft=4;spacingRight=4;overflow=hidden;rotatable=0;points=[[0,0.5],[1,0.5]];portConstraint=eastwest;" vertex="1" parent="89">
                    <mxGeometry y="75" width="245" height="20" as="geometry"/>
                </mxCell>
                <mxCell id="99" value="shared_data = shared_data" style="text;html=1;strokeColor=none;fillColor=none;align=left;verticalAlign=middle;spacingLeft=4;spacingRight=4;overflow=hidden;rotatable=0;points=[[0,0.5],[1,0.5]];portConstraint=eastwest;" vertex="1" parent="89">
                    <mxGeometry y="95" width="245" height="20" as="geometry"/>
                </mxCell>
                <mxCell id="93" value="container = MainFrame" style="text;html=1;strokeColor=none;fillColor=none;align=left;verticalAlign=middle;spacingLeft=4;spacingRight=4;overflow=hidden;rotatable=0;points=[[0,0.5],[1,0.5]];portConstraint=eastwest;" vertex="1" parent="89">
                    <mxGeometry y="115" width="245" height="20" as="geometry"/>
                </mxCell>
                <mxCell id="94" value="" style="line;strokeWidth=1;fillColor=none;align=left;verticalAlign=middle;spacingTop=-1;spacingLeft=3;spacingRight=3;rotatable=0;labelPosition=right;points=[];portConstraint=eastwest;" vertex="1" parent="89">
                    <mxGeometry y="135" width="245" height="8" as="geometry"/>
                </mxCell>
                <mxCell id="95" value="operations" style="text;html=1;strokeColor=none;fillColor=none;align=center;verticalAlign=middle;spacingLeft=4;spacingRight=4;overflow=hidden;rotatable=0;points=[[0,0.5],[1,0.5]];portConstraint=eastwest;" vertex="1" parent="89">
                    <mxGeometry y="143" width="245" height="20" as="geometry"/>
                </mxCell>
                <mxCell id="97" value="ttk.Label('{param_type} dictionnary').grid()" style="text;html=1;strokeColor=none;fillColor=none;align=left;verticalAlign=middle;spacingLeft=4;spacingRight=4;overflow=hidden;rotatable=0;points=[[0,0.5],[1,0.5]];portConstraint=eastwest;" vertex="1" parent="89">
                    <mxGeometry y="163" width="245" height="20" as="geometry"/>
                </mxCell>
                <mxCell id="98" value="dictionnary = DynamicDictionnary()" style="text;html=1;strokeColor=none;fillColor=none;align=left;verticalAlign=middle;spacingLeft=4;spacingRight=4;overflow=hidden;rotatable=0;points=[[0,0.5],[1,0.5]];portConstraint=eastwest;" vertex="1" parent="89">
                    <mxGeometry y="183" width="245" height="20" as="geometry"/>
                </mxCell>
                <mxCell id="101" value="dictionnary.grid()" style="text;html=1;strokeColor=none;fillColor=none;align=left;verticalAlign=middle;spacingLeft=4;spacingRight=4;overflow=hidden;rotatable=0;points=[[0,0.5],[1,0.5]];portConstraint=eastwest;" vertex="1" parent="89">
                    <mxGeometry y="203" width="245" height="20" as="geometry"/>
                </mxCell>
                <mxCell id="100" value="DynamicParameters().grid()" style="text;html=1;strokeColor=none;fillColor=none;align=left;verticalAlign=middle;spacingLeft=4;spacingRight=4;overflow=hidden;rotatable=0;points=[[0,0.5],[1,0.5]];portConstraint=eastwest;" vertex="1" parent="89">
                    <mxGeometry y="223" width="245" height="20" as="geometry"/>
                </mxCell>
                <mxCell id="116" style="edgeStyle=orthogonalEdgeStyle;sketch=0;html=1;exitX=1;exitY=0.5;exitDx=0;exitDy=0;entryX=-0.004;entryY=0.18;entryDx=0;entryDy=0;entryPerimeter=0;shadow=0;startArrow=none;startFill=0;curved=1;" edge="1" parent="1" source="115" target="89">
                    <mxGeometry relative="1" as="geometry"/>
                </mxCell>
                <mxCell id="119" value="&lt;b&gt;DynamicDictionnary&lt;/b&gt;&lt;br&gt;(ttk.Frame)" style="swimlane;fontStyle=0;align=center;verticalAlign=top;childLayout=stackLayout;horizontal=1;startSize=55;horizontalStack=0;resizeParent=1;resizeParentMax=0;resizeLast=0;collapsible=0;marginBottom=0;html=1;" vertex="1" parent="1">
                    <mxGeometry x="830" y="-360" width="255" height="311" as="geometry"/>
                </mxCell>
                <mxCell id="120" value="__init__" style="text;html=1;strokeColor=none;fillColor=none;align=center;verticalAlign=middle;spacingLeft=4;spacingRight=4;overflow=hidden;rotatable=0;points=[[0,0.5],[1,0.5]];portConstraint=eastwest;" vertex="1" parent="119">
                    <mxGeometry y="55" width="255" height="20" as="geometry"/>
                </mxCell>
                <mxCell id="121" value="param_type = 'mic' or 'src'" style="text;html=1;strokeColor=none;fillColor=none;align=left;verticalAlign=middle;spacingLeft=4;spacingRight=4;overflow=hidden;rotatable=0;points=[[0,0.5],[1,0.5]];portConstraint=eastwest;" vertex="1" parent="119">
                    <mxGeometry y="75" width="255" height="20" as="geometry"/>
                </mxCell>
                <mxCell id="122" value="shared_data = shared_data" style="text;html=1;strokeColor=none;fillColor=none;align=left;verticalAlign=middle;spacingLeft=4;spacingRight=4;overflow=hidden;rotatable=0;points=[[0,0.5],[1,0.5]];portConstraint=eastwest;" vertex="1" parent="119">
                    <mxGeometry y="95" width="255" height="20" as="geometry"/>
                </mxCell>
                <mxCell id="123" value="container = DictionnaryFrame" style="text;html=1;strokeColor=none;fillColor=none;align=left;verticalAlign=middle;spacingLeft=4;spacingRight=4;overflow=hidden;rotatable=0;points=[[0,0.5],[1,0.5]];portConstraint=eastwest;" vertex="1" parent="119">
                    <mxGeometry y="115" width="255" height="20" as="geometry"/>
                </mxCell>
                <mxCell id="124" value="" style="line;strokeWidth=1;fillColor=none;align=left;verticalAlign=middle;spacingTop=-1;spacingLeft=3;spacingRight=3;rotatable=0;labelPosition=right;points=[];portConstraint=eastwest;" vertex="1" parent="119">
                    <mxGeometry y="135" width="255" height="8" as="geometry"/>
                </mxCell>
                <mxCell id="125" value="operations" style="text;html=1;strokeColor=none;fillColor=none;align=center;verticalAlign=middle;spacingLeft=4;spacingRight=4;overflow=hidden;rotatable=0;points=[[0,0.5],[1,0.5]];portConstraint=eastwest;" vertex="1" parent="119">
                    <mxGeometry y="143" width="255" height="20" as="geometry"/>
                </mxCell>
                <mxCell id="126" value="self.param.type = param_type" style="text;html=1;strokeColor=none;fillColor=none;align=left;verticalAlign=middle;spacingLeft=4;spacingRight=4;overflow=hidden;rotatable=0;points=[[0,0.5],[1,0.5]];portConstraint=eastwest;" vertex="1" parent="119">
                    <mxGeometry y="163" width="255" height="20" as="geometry"/>
                </mxCell>
                <mxCell id="127" value="self.shared_data = shared_data" style="text;html=1;strokeColor=none;fillColor=none;align=left;verticalAlign=middle;spacingLeft=4;spacingRight=4;overflow=hidden;rotatable=0;points=[[0,0.5],[1,0.5]];portConstraint=eastwest;" vertex="1" parent="119">
                    <mxGeometry y="183" width="255" height="20" as="geometry"/>
                </mxCell>
                <mxCell id="132" value="" style="line;strokeWidth=1;fillColor=none;align=left;verticalAlign=middle;spacingTop=-1;spacingLeft=3;spacingRight=3;rotatable=0;labelPosition=right;points=[];portConstraint=eastwest;" vertex="1" parent="119">
                    <mxGeometry y="203" width="255" height="8" as="geometry"/>
                </mxCell>
                <mxCell id="129" value="def update_display()" style="text;html=1;strokeColor=none;fillColor=none;align=center;verticalAlign=middle;spacingLeft=4;spacingRight=4;overflow=hidden;rotatable=0;points=[[0,0.5],[1,0.5]];portConstraint=eastwest;" vertex="1" parent="119">
                    <mxGeometry y="211" width="255" height="20" as="geometry"/>
                </mxCell>
                <mxCell id="133" value="for loop --&amp;gt; Destroy self.winfo_children()" style="text;html=1;strokeColor=none;fillColor=none;align=left;verticalAlign=middle;spacingLeft=4;spacingRight=4;overflow=hidden;rotatable=0;points=[[0,0.5],[1,0.5]];portConstraint=eastwest;" vertex="1" parent="119">
                    <mxGeometry y="231" width="255" height="20" as="geometry"/>
                </mxCell>
                <mxCell id="134" value="data_vars = self.shared_data.{param_type}" style="text;html=1;strokeColor=none;fillColor=none;align=left;verticalAlign=middle;spacingLeft=4;spacingRight=4;overflow=hidden;rotatable=0;points=[[0,0.5],[1,0.5]];portConstraint=eastwest;" vertex="1" parent="119">
                    <mxGeometry y="251" width="255" height="20" as="geometry"/>
                </mxCell>
                <mxCell id="135" value="for loop --&amp;gt; ttk.Label({param_type}{index + 1})" style="text;html=1;strokeColor=none;fillColor=none;align=left;verticalAlign=middle;spacingLeft=4;spacingRight=4;overflow=hidden;rotatable=0;points=[[0,0.5],[1,0.5]];portConstraint=eastwest;" vertex="1" parent="119">
                    <mxGeometry y="271" width="255" height="20" as="geometry"/>
                </mxCell>
                <mxCell id="136" value="&lt;span style=&quot;white-space: pre;&quot;&gt;&#9;&lt;/span&gt;&lt;span style=&quot;white-space: pre;&quot;&gt;&#9;&lt;/span&gt;ttk.Label(data_var)" style="text;html=1;strokeColor=none;fillColor=none;align=left;verticalAlign=middle;spacingLeft=4;spacingRight=4;overflow=hidden;rotatable=0;points=[[0,0.5],[1,0.5]];portConstraint=eastwest;" vertex="1" parent="119">
                    <mxGeometry y="291" width="255" height="20" as="geometry"/>
                </mxCell>
                <mxCell id="137" style="edgeStyle=orthogonalEdgeStyle;curved=1;sketch=0;html=1;exitX=1;exitY=0.5;exitDx=0;exitDy=0;entryX=0;entryY=0.1;entryDx=0;entryDy=0;entryPerimeter=0;shadow=0;startArrow=none;startFill=0;" edge="1" parent="1" source="98" target="119">
                    <mxGeometry relative="1" as="geometry"/>
                </mxCell>
                <mxCell id="138" value="&lt;b&gt;DynamicParameters&lt;/b&gt;&lt;br&gt;(ttk.Frame)" style="swimlane;fontStyle=0;align=center;verticalAlign=top;childLayout=stackLayout;horizontal=1;startSize=55;horizontalStack=0;resizeParent=1;resizeParentMax=0;resizeLast=0;collapsible=0;marginBottom=0;html=1;" vertex="1" parent="1">
                    <mxGeometry x="850" y="2" width="350" height="311" as="geometry"/>
                </mxCell>
                <mxCell id="139" value="__init__" style="text;html=1;strokeColor=none;fillColor=none;align=center;verticalAlign=middle;spacingLeft=4;spacingRight=4;overflow=hidden;rotatable=0;points=[[0,0.5],[1,0.5]];portConstraint=eastwest;" vertex="1" parent="138">
                    <mxGeometry y="55" width="350" height="20" as="geometry"/>
                </mxCell>
                <mxCell id="140" value="param_type = 'mic' or 'src'" style="text;html=1;strokeColor=none;fillColor=none;align=left;verticalAlign=middle;spacingLeft=4;spacingRight=4;overflow=hidden;rotatable=0;points=[[0,0.5],[1,0.5]];portConstraint=eastwest;" vertex="1" parent="138">
                    <mxGeometry y="75" width="350" height="20" as="geometry"/>
                </mxCell>
                <mxCell id="141" value="shared_data = shared_data" style="text;html=1;strokeColor=none;fillColor=none;align=left;verticalAlign=middle;spacingLeft=4;spacingRight=4;overflow=hidden;rotatable=0;points=[[0,0.5],[1,0.5]];portConstraint=eastwest;" vertex="1" parent="138">
                    <mxGeometry y="95" width="350" height="20" as="geometry"/>
                </mxCell>
                <mxCell id="142" value="container = DictionnaryFrame" style="text;html=1;strokeColor=none;fillColor=none;align=left;verticalAlign=middle;spacingLeft=4;spacingRight=4;overflow=hidden;rotatable=0;points=[[0,0.5],[1,0.5]];portConstraint=eastwest;" vertex="1" parent="138">
                    <mxGeometry y="115" width="350" height="20" as="geometry"/>
                </mxCell>
                <mxCell id="154" value="dictionnary = dictionnary" style="text;html=1;strokeColor=none;fillColor=none;align=left;verticalAlign=middle;spacingLeft=4;spacingRight=4;overflow=hidden;rotatable=0;points=[[0,0.5],[1,0.5]];portConstraint=eastwest;" vertex="1" parent="138">
                    <mxGeometry y="135" width="350" height="20" as="geometry"/>
                </mxCell>
                <mxCell id="143" value="" style="line;strokeWidth=1;fillColor=none;align=left;verticalAlign=middle;spacingTop=-1;spacingLeft=3;spacingRight=3;rotatable=0;labelPosition=right;points=[];portConstraint=eastwest;" vertex="1" parent="138">
                    <mxGeometry y="155" width="350" height="8" as="geometry"/>
                </mxCell>
                <mxCell id="144" value="operations" style="text;html=1;strokeColor=none;fillColor=none;align=center;verticalAlign=middle;spacingLeft=4;spacingRight=4;overflow=hidden;rotatable=0;points=[[0,0.5],[1,0.5]];portConstraint=eastwest;" vertex="1" parent="138">
                    <mxGeometry y="163" width="350" height="20" as="geometry"/>
                </mxCell>
                <mxCell id="145" value="self.param.type = param_type" style="text;html=1;strokeColor=none;fillColor=none;align=left;verticalAlign=middle;spacingLeft=4;spacingRight=4;overflow=hidden;rotatable=0;points=[[0,0.5],[1,0.5]];portConstraint=eastwest;" vertex="1" parent="138">
                    <mxGeometry y="183" width="350" height="20" as="geometry"/>
                </mxCell>
                <mxCell id="146" value="self.shared_data = shared_data" style="text;html=1;strokeColor=none;fillColor=none;align=left;verticalAlign=middle;spacingLeft=4;spacingRight=4;overflow=hidden;rotatable=0;points=[[0,0.5],[1,0.5]];portConstraint=eastwest;" vertex="1" parent="138">
                    <mxGeometry y="203" width="350" height="20" as="geometry"/>
                </mxCell>
                <mxCell id="155" value="self.dictionnary = dictionnary" style="text;html=1;strokeColor=none;fillColor=none;align=left;verticalAlign=middle;spacingLeft=4;spacingRight=4;overflow=hidden;rotatable=0;points=[[0,0.5],[1,0.5]];portConstraint=eastwest;" vertex="1" parent="138">
                    <mxGeometry y="223" width="350" height="20" as="geometry"/>
                </mxCell>
                <mxCell id="159" value="self.add_param_btn = ttk.Button(param_type, self.add_param)" style="text;html=1;strokeColor=none;fillColor=none;align=left;verticalAlign=middle;spacingLeft=4;spacingRight=4;overflow=hidden;rotatable=0;points=[[0,0.5],[1,0.5]];portConstraint=eastwest;" vertex="1" parent="138">
                    <mxGeometry y="243" width="350" height="20" as="geometry"/>
                </mxCell>
                <mxCell id="160" value="self.add_param_btn.grid()" style="text;html=1;strokeColor=none;fillColor=none;align=left;verticalAlign=middle;spacingLeft=4;spacingRight=4;overflow=hidden;rotatable=0;points=[[0,0.5],[1,0.5]];portConstraint=eastwest;" vertex="1" parent="138">
                    <mxGeometry y="263" width="350" height="20" as="geometry"/>
                </mxCell>
                <mxCell id="147" value="" style="line;strokeWidth=1;fillColor=none;align=left;verticalAlign=middle;spacingTop=-1;spacingLeft=3;spacingRight=3;rotatable=0;labelPosition=right;points=[];portConstraint=eastwest;" vertex="1" parent="138">
                    <mxGeometry y="283" width="350" height="8" as="geometry"/>
                </mxCell>
                <mxCell id="148" value="def add_param()" style="text;html=1;strokeColor=none;fillColor=none;align=center;verticalAlign=middle;spacingLeft=4;spacingRight=4;overflow=hidden;rotatable=0;points=[[0,0.5],[1,0.5]];portConstraint=eastwest;" vertex="1" parent="138">
                    <mxGeometry y="291" width="350" height="20" as="geometry"/>
                </mxCell>
                <mxCell id="153" style="edgeStyle=orthogonalEdgeStyle;curved=1;sketch=0;html=1;exitX=1;exitY=0.5;exitDx=0;exitDy=0;entryX=-0.004;entryY=0.093;entryDx=0;entryDy=0;entryPerimeter=0;shadow=0;startArrow=none;startFill=0;" edge="1" parent="1" source="100" target="138">
                    <mxGeometry relative="1" as="geometry"/>
                </mxCell>
                <mxCell id="164" value="def add_param(self)" style="swimlane;fontStyle=1;align=center;verticalAlign=middle;childLayout=stackLayout;horizontal=1;startSize=29;horizontalStack=0;resizeParent=1;resizeParentMax=0;resizeLast=0;collapsible=0;marginBottom=0;html=1;rounded=1;" vertex="1" parent="1">
                    <mxGeometry x="1300" y="2" width="300" height="209" as="geometry"/>
                </mxCell>
                <mxCell id="167" value="index = len(self.shared_data.{param_type}_data)" style="text;html=1;strokeColor=none;fillColor=none;align=left;verticalAlign=middle;spacingLeft=4;spacingRight=4;overflow=hidden;rotatable=0;points=[[0,0.5],[1,0.5]];portConstraint=eastwest;" vertex="1" parent="164">
                    <mxGeometry y="29" width="300" height="20" as="geometry"/>
                </mxCell>
                <mxCell id="168" value="label = ttk.Label({param_type}{index + 1})" style="text;html=1;strokeColor=none;fillColor=none;align=left;verticalAlign=middle;spacingLeft=4;spacingRight=4;overflow=hidden;rotatable=0;points=[[0,0.5],[1,0.5]];portConstraint=eastwest;" vertex="1" parent="164">
                    <mxGeometry y="49" width="300" height="20" as="geometry"/>
                </mxCell>
                <mxCell id="169" value="label.grid()" style="text;html=1;strokeColor=none;fillColor=none;align=left;verticalAlign=middle;spacingLeft=4;spacingRight=4;overflow=hidden;rotatable=0;points=[[0,0.5],[1,0.5]];portConstraint=eastwest;" vertex="1" parent="164">
                    <mxGeometry y="69" width="300" height="20" as="geometry"/>
                </mxCell>
                <mxCell id="170" value="new_var = tk.StringVar()" style="text;html=1;strokeColor=none;fillColor=none;align=left;verticalAlign=middle;spacingLeft=4;spacingRight=4;overflow=hidden;rotatable=0;points=[[0,0.5],[1,0.5]];portConstraint=eastwest;" vertex="1" parent="164">
                    <mxGeometry y="89" width="300" height="20" as="geometry"/>
                </mxCell>
                <mxCell id="171" value="entry = ttk.Entry(new_var)" style="text;html=1;strokeColor=none;fillColor=none;align=left;verticalAlign=middle;spacingLeft=4;spacingRight=4;overflow=hidden;rotatable=0;points=[[0,0.5],[1,0.5]];portConstraint=eastwest;" vertex="1" parent="164">
                    <mxGeometry y="109" width="300" height="20" as="geometry"/>
                </mxCell>
                <mxCell id="174" value="entry.grid()" style="text;html=1;strokeColor=none;fillColor=none;align=left;verticalAlign=middle;spacingLeft=4;spacingRight=4;overflow=hidden;rotatable=0;points=[[0,0.5],[1,0.5]];portConstraint=eastwest;" vertex="1" parent="164">
                    <mxGeometry y="129" width="300" height="20" as="geometry"/>
                </mxCell>
                <mxCell id="175" value="btn = ttk.Button('X')" style="text;html=1;strokeColor=none;fillColor=none;align=left;verticalAlign=middle;spacingLeft=4;spacingRight=4;overflow=hidden;rotatable=0;points=[[0,0.5],[1,0.5]];portConstraint=eastwest;" vertex="1" parent="164">
                    <mxGeometry y="149" width="300" height="20" as="geometry"/>
                </mxCell>
                <mxCell id="176" value="btn.configure(partial(self.delete_row, label, entry, btn))" style="text;html=1;strokeColor=none;fillColor=none;align=left;verticalAlign=middle;spacingLeft=4;spacingRight=4;overflow=hidden;rotatable=0;points=[[0,0.5],[1,0.5]];portConstraint=eastwest;" vertex="1" parent="164">
                    <mxGeometry y="169" width="300" height="20" as="geometry"/>
                </mxCell>
                <mxCell id="177" value="btn.grid()" style="text;html=1;strokeColor=none;fillColor=none;align=left;verticalAlign=middle;spacingLeft=4;spacingRight=4;overflow=hidden;rotatable=0;points=[[0,0.5],[1,0.5]];portConstraint=eastwest;" vertex="1" parent="164">
                    <mxGeometry y="189" width="300" height="20" as="geometry"/>
                </mxCell>
                <mxCell id="178" style="edgeStyle=orthogonalEdgeStyle;curved=1;sketch=0;html=1;exitX=1;exitY=0.5;exitDx=0;exitDy=0;entryX=-0.003;entryY=0.078;entryDx=0;entryDy=0;entryPerimeter=0;shadow=0;startArrow=none;startFill=0;" edge="1" parent="1" source="148" target="164">
                    <mxGeometry relative="1" as="geometry"/>
                </mxCell>
                <mxCell id="179" value="def delete_row(self, label, entry, btn)" style="swimlane;fontStyle=1;align=center;verticalAlign=middle;childLayout=stackLayout;horizontal=1;startSize=29;horizontalStack=0;resizeParent=1;resizeParentMax=0;resizeLast=0;collapsible=0;marginBottom=0;html=1;rounded=1;" vertex="1" parent="1">
                    <mxGeometry x="1300" y="-140" width="300" height="109" as="geometry"/>
                </mxCell>
                <mxCell id="180" value="text = label.cget('text')" style="text;html=1;strokeColor=none;fillColor=none;align=left;verticalAlign=middle;spacingLeft=4;spacingRight=4;overflow=hidden;rotatable=0;points=[[0,0.5],[1,0.5]];portConstraint=eastwest;" vertex="1" parent="179">
                    <mxGeometry y="29" width="300" height="20" as="geometry"/>
                </mxCell>
                <mxCell id="181" value="del self.shared_data.{param_type}_data[text]" style="text;html=1;strokeColor=none;fillColor=none;align=left;verticalAlign=middle;spacingLeft=4;spacingRight=4;overflow=hidden;rotatable=0;points=[[0,0.5],[1,0.5]];portConstraint=eastwest;" vertex="1" parent="179">
                    <mxGeometry y="49" width="300" height="20" as="geometry"/>
                </mxCell>
                <mxCell id="182" value="self.dictionnary.update_display()" style="text;html=1;strokeColor=none;fillColor=none;align=left;verticalAlign=middle;spacingLeft=4;spacingRight=4;overflow=hidden;rotatable=0;points=[[0,0.5],[1,0.5]];portConstraint=eastwest;" vertex="1" parent="179">
                    <mxGeometry y="69" width="300" height="20" as="geometry"/>
                </mxCell>
                <mxCell id="183" value="(label, entry and btn).grid_forget()" style="text;html=1;strokeColor=none;fillColor=none;align=left;verticalAlign=middle;spacingLeft=4;spacingRight=4;overflow=hidden;rotatable=0;points=[[0,0.5],[1,0.5]];portConstraint=eastwest;" vertex="1" parent="179">
                    <mxGeometry y="89" width="300" height="20" as="geometry"/>
                </mxCell>
                <mxCell id="190" value="&lt;b&gt;BaseParametersFrame&lt;/b&gt;&lt;br&gt;(ttk.Frame)" style="swimlane;fontStyle=0;align=center;verticalAlign=top;childLayout=stackLayout;horizontal=1;startSize=55;horizontalStack=0;resizeParent=1;resizeParentMax=0;resizeLast=0;collapsible=0;marginBottom=0;html=1;" vertex="1" parent="1">
                    <mxGeometry x="830" y="425" width="245" height="203" as="geometry"/>
                </mxCell>
                <mxCell id="191" value="__init__" style="text;html=1;strokeColor=none;fillColor=none;align=center;verticalAlign=middle;spacingLeft=4;spacingRight=4;overflow=hidden;rotatable=0;points=[[0,0.5],[1,0.5]];portConstraint=eastwest;" vertex="1" parent="190">
                    <mxGeometry y="55" width="245" height="20" as="geometry"/>
                </mxCell>
                <mxCell id="194" value="container = RoomParametersFrame" style="text;html=1;strokeColor=none;fillColor=none;align=left;verticalAlign=middle;spacingLeft=4;spacingRight=4;overflow=hidden;rotatable=0;points=[[0,0.5],[1,0.5]];portConstraint=eastwest;" vertex="1" parent="190">
                    <mxGeometry y="75" width="245" height="20" as="geometry"/>
                </mxCell>
                <mxCell id="195" value="" style="line;strokeWidth=1;fillColor=none;align=left;verticalAlign=middle;spacingTop=-1;spacingLeft=3;spacingRight=3;rotatable=0;labelPosition=right;points=[];portConstraint=eastwest;" vertex="1" parent="190">
                    <mxGeometry y="95" width="245" height="8" as="geometry"/>
                </mxCell>
                <mxCell id="196" value="operations" style="text;html=1;strokeColor=none;fillColor=none;align=center;verticalAlign=middle;spacingLeft=4;spacingRight=4;overflow=hidden;rotatable=0;points=[[0,0.5],[1,0.5]];portConstraint=eastwest;" vertex="1" parent="190">
                    <mxGeometry y="103" width="245" height="20" as="geometry"/>
                </mxCell>
                <mxCell id="197" value="base_parameters = ['Room dimensions', ...]" style="text;html=1;strokeColor=none;fillColor=none;align=left;verticalAlign=middle;spacingLeft=4;spacingRight=4;overflow=hidden;rotatable=0;points=[[0,0.5],[1,0.5]];portConstraint=eastwest;" vertex="1" parent="190">
                    <mxGeometry y="123" width="245" height="20" as="geometry"/>
                </mxCell>
                <mxCell id="198" value="self.base_vars = [tk.StringVar(), tk.String...]" style="text;html=1;strokeColor=none;fillColor=none;align=left;verticalAlign=middle;spacingLeft=4;spacingRight=4;overflow=hidden;rotatable=0;points=[[0,0.5],[1,0.5]];portConstraint=eastwest;" vertex="1" parent="190">
                    <mxGeometry y="143" width="245" height="20" as="geometry"/>
                </mxCell>
                <mxCell id="199" value="for loop --&amp;gt; ttk.Label().grid()" style="text;html=1;strokeColor=none;fillColor=none;align=left;verticalAlign=middle;spacingLeft=4;spacingRight=4;overflow=hidden;rotatable=0;points=[[0,0.5],[1,0.5]];portConstraint=eastwest;" vertex="1" parent="190">
                    <mxGeometry y="163" width="245" height="20" as="geometry"/>
                </mxCell>
                <mxCell id="200" value="&lt;span style=&quot;white-space: pre;&quot;&gt;&#9;&lt;/span&gt;&lt;span style=&quot;white-space: pre;&quot;&gt;&#9;&lt;/span&gt;ttk.Entry(self.base_vars).grid()" style="text;html=1;strokeColor=none;fillColor=none;align=left;verticalAlign=middle;spacingLeft=4;spacingRight=4;overflow=hidden;rotatable=0;points=[[0,0.5],[1,0.5]];portConstraint=eastwest;" vertex="1" parent="190">
                    <mxGeometry y="183" width="245" height="20" as="geometry"/>
                </mxCell>
                <mxCell id="201" style="edgeStyle=orthogonalEdgeStyle;curved=1;sketch=0;html=1;exitX=1;exitY=0.5;exitDx=0;exitDy=0;shadow=0;startArrow=none;startFill=0;" edge="1" parent="1" source="86">
                    <mxGeometry relative="1" as="geometry">
                        <mxPoint x="600" y="420" as="targetPoint"/>
                    </mxGeometry>
                </mxCell>
                <mxCell id="205" style="edgeStyle=orthogonalEdgeStyle;curved=1;sketch=0;html=1;exitX=1;exitY=0.5;exitDx=0;exitDy=0;entryX=1.002;entryY=0.144;entryDx=0;entryDy=0;entryPerimeter=0;shadow=0;startArrow=none;startFill=0;" edge="1" parent="1" source="176" target="179">
                    <mxGeometry relative="1" as="geometry">
                        <Array as="points">
                            <mxPoint x="1670" y="181"/>
                            <mxPoint x="1670" y="-124"/>
                        </Array>
                    </mxGeometry>
                </mxCell>
                <mxCell id="206" style="edgeStyle=orthogonalEdgeStyle;curved=1;sketch=0;html=1;exitX=0;exitY=0.5;exitDx=0;exitDy=0;entryX=1;entryY=0.5;entryDx=0;entryDy=0;shadow=0;startArrow=none;startFill=0;" edge="1" parent="1" source="182" target="129">
                    <mxGeometry relative="1" as="geometry"/>
                </mxCell>
                <mxCell id="207" value="&lt;b&gt;RoomParametersFrame&lt;/b&gt;&lt;br&gt;(ttk.Frame)" style="swimlane;fontStyle=0;align=center;verticalAlign=top;childLayout=stackLayout;horizontal=1;startSize=55;horizontalStack=0;resizeParent=1;resizeParentMax=0;resizeLast=0;collapsible=0;marginBottom=0;html=1;" vertex="1" parent="1">
                    <mxGeometry x="480" y="425" width="245" height="163" as="geometry"/>
                </mxCell>
                <mxCell id="208" value="__init__" style="text;html=1;strokeColor=none;fillColor=none;align=center;verticalAlign=middle;spacingLeft=4;spacingRight=4;overflow=hidden;rotatable=0;points=[[0,0.5],[1,0.5]];portConstraint=eastwest;" vertex="1" parent="207">
                    <mxGeometry y="55" width="245" height="20" as="geometry"/>
                </mxCell>
                <mxCell id="209" value="container = MainFrame" style="text;html=1;strokeColor=none;fillColor=none;align=left;verticalAlign=middle;spacingLeft=4;spacingRight=4;overflow=hidden;rotatable=0;points=[[0,0.5],[1,0.5]];portConstraint=eastwest;" vertex="1" parent="207">
                    <mxGeometry y="75" width="245" height="20" as="geometry"/>
                </mxCell>
                <mxCell id="210" value="" style="line;strokeWidth=1;fillColor=none;align=left;verticalAlign=middle;spacingTop=-1;spacingLeft=3;spacingRight=3;rotatable=0;labelPosition=right;points=[];portConstraint=eastwest;" vertex="1" parent="207">
                    <mxGeometry y="95" width="245" height="8" as="geometry"/>
                </mxCell>
                <mxCell id="211" value="operations" style="text;html=1;strokeColor=none;fillColor=none;align=center;verticalAlign=middle;spacingLeft=4;spacingRight=4;overflow=hidden;rotatable=0;points=[[0,0.5],[1,0.5]];portConstraint=eastwest;" vertex="1" parent="207">
                    <mxGeometry y="103" width="245" height="20" as="geometry"/>
                </mxCell>
                <mxCell id="212" value="ttk.Label('Room Parameters').grid()" style="text;html=1;strokeColor=none;fillColor=none;align=left;verticalAlign=middle;spacingLeft=4;spacingRight=4;overflow=hidden;rotatable=0;points=[[0,0.5],[1,0.5]];portConstraint=eastwest;" vertex="1" parent="207">
                    <mxGeometry y="123" width="245" height="20" as="geometry"/>
                </mxCell>
                <mxCell id="215" value="BaseParameters(self).grid()" style="text;html=1;strokeColor=none;fillColor=none;align=left;verticalAlign=middle;spacingLeft=4;spacingRight=4;overflow=hidden;rotatable=0;points=[[0,0.5],[1,0.5]];portConstraint=eastwest;" vertex="1" parent="207">
                    <mxGeometry y="143" width="245" height="20" as="geometry"/>
                </mxCell>
                <mxCell id="216" style="edgeStyle=orthogonalEdgeStyle;curved=1;sketch=0;html=1;exitX=1;exitY=0.5;exitDx=0;exitDy=0;entryX=-0.009;entryY=0.134;entryDx=0;entryDy=0;entryPerimeter=0;shadow=0;startArrow=none;startFill=0;" edge="1" parent="1" source="215" target="190">
                    <mxGeometry relative="1" as="geometry"/>
                </mxCell>
                <mxCell id="228" style="edgeStyle=orthogonalEdgeStyle;curved=1;sketch=0;html=1;exitX=1;exitY=0.25;exitDx=0;exitDy=0;entryX=0;entryY=0.5;entryDx=0;entryDy=0;shadow=0;startArrow=none;startFill=0;" edge="1" parent="1" source="217" target="76">
                    <mxGeometry relative="1" as="geometry"/>
                </mxCell>
                <mxCell id="217" value="&lt;b&gt;App&lt;/b&gt;&lt;br&gt;(tk.Tk)" style="swimlane;fontStyle=0;align=center;verticalAlign=top;childLayout=stackLayout;horizontal=1;startSize=55;horizontalStack=0;resizeParent=1;resizeParentMax=0;resizeLast=0;collapsible=0;marginBottom=0;html=1;" vertex="1" parent="1">
                    <mxGeometry x="-140" y="130" width="210" height="115" as="geometry"/>
                </mxCell>
                <mxCell id="221" value="operations" style="text;html=1;strokeColor=none;fillColor=none;align=center;verticalAlign=middle;spacingLeft=4;spacingRight=4;overflow=hidden;rotatable=0;points=[[0,0.5],[1,0.5]];portConstraint=eastwest;" vertex="1" parent="217">
                    <mxGeometry y="55" width="210" height="20" as="geometry"/>
                </mxCell>
                <mxCell id="222" value="self.title('Main Frame')" style="text;html=1;strokeColor=none;fillColor=none;align=left;verticalAlign=middle;spacingLeft=4;spacingRight=4;overflow=hidden;rotatable=0;points=[[0,0.5],[1,0.5]];portConstraint=eastwest;" vertex="1" parent="217">
                    <mxGeometry y="75" width="210" height="20" as="geometry"/>
                </mxCell>
                <mxCell id="223" value="self.geometry('800x600')" style="text;html=1;strokeColor=none;fillColor=none;align=left;verticalAlign=middle;spacingLeft=4;spacingRight=4;overflow=hidden;rotatable=0;points=[[0,0.5],[1,0.5]];portConstraint=eastwest;" vertex="1" parent="217">
                    <mxGeometry y="95" width="210" height="20" as="geometry"/>
                </mxCell>
            </root>
        </mxGraphModel>
    </diagram>
</mxfile>